# Blender 5.1.1
# www.blender.org
mtllib boss.mtl
o 平面
v -0.668974 0.155960 0.285568
v -0.668974 -0.126331 0.489398
v -0.668974 0.155960 -0.285568
v -0.668974 -0.126331 -0.489398
v 0.131114 -0.257972 -1.000000
v 0.997140 -0.257972 -0.500000
v 0.131114 -0.106607 -1.000000
v -0.734911 -0.257972 -0.500000
v -0.734911 -0.257972 0.500000
v -0.734911 -0.106608 -0.500000
v -0.734911 -0.106608 0.500000
v 0.131114 -0.106607 1.000000
v 0.997140 -0.106608 0.500000
v 0.131114 -0.257972 1.000000
v 0.997140 -0.257972 0.500000
v 0.997140 -0.106608 -0.500000
v 0.131114 -0.100087 -1.000000
v 0.997140 -0.100087 -0.500000
v 0.131114 0.051277 -1.000000
v -0.734911 -0.100087 -0.500000
v 0.131114 -0.100087 -0.801297
v 0.825058 -0.100087 -0.400649
v -0.562829 -0.100087 -0.400648
v 0.131114 0.051277 -0.801297
v 0.825058 0.051277 -0.400649
v -0.562829 0.051277 -0.400648
v -0.734911 0.051277 -0.500000
v -0.562829 0.304385 -0.231429
v -0.562829 0.304385 0.231429
v -0.734911 0.304385 -0.288818
v -0.562829 0.153021 -0.231429
v -0.562829 0.153021 0.231429
v -0.734911 0.153021 -0.288818
v -0.734911 0.153021 0.288818
v -0.734911 -0.100087 0.500000
v -0.734911 0.304385 0.288818
v -0.734911 0.051277 0.500000
v 0.131114 0.051277 1.000000
v -0.562829 0.051277 0.400649
v 0.131114 0.051277 0.801297
v -0.562829 -0.100087 0.400649
v 0.131114 -0.100087 0.801297
v 0.131114 -0.100087 1.000000
v 0.825058 -0.100087 0.400648
v 0.825058 0.051277 0.400648
v 0.997140 -0.100087 0.500000
v 0.997140 0.051277 0.500000
v 0.997140 0.051277 -0.500000
v 0.131114 -0.658337 -0.623441
v 0.671031 -0.658337 -0.311721
v -0.408802 -0.658337 -0.311721
v 0.131114 -0.224255 -0.923277
v 0.131114 0.297949 -0.923277
v -0.668467 -0.224255 -0.461638
v 0.930696 -0.224255 -0.461639
v 0.930696 0.297949 -0.461639
v 0.930696 -0.224255 0.461638
v 0.671031 -0.658337 0.311721
v 0.930696 0.297949 0.461638
v 0.131114 -0.224255 0.923277
v 0.131114 -0.658337 0.623441
v 0.131114 0.297949 0.923277
v -0.668467 -0.224255 0.461639
v -0.408802 -0.658337 0.311721
v -0.668467 0.297949 0.461639
v -0.408802 0.732031 0.311721
v -0.668467 0.297949 -0.461638
v -0.408802 0.732031 -0.311721
v 0.131114 0.732031 -0.623441
v 0.671030 0.732031 -0.311721
v 0.671030 0.732031 0.311721
v 0.131114 0.732031 0.623441
vn -1.0000 -0.0000 -0.0000
vn 0.5000 -0.0000 -0.8660
vn -0.0000 -1.0000 -0.0000
vn -0.5000 -0.0000 -0.8660
vn -0.0000 1.0000 -0.0000
vn -0.5000 -0.0000 0.8660
vn 0.5000 -0.0000 0.8660
vn 1.0000 -0.0000 -0.0000
vn 0.2672 0.5356 -0.8011
vn -0.2672 -0.5356 0.8011
vn -0.2672 -0.5356 -0.8011
vn 0.2672 0.5356 0.8011
vn 0.4291 -0.5134 -0.7432
vn -0.4291 -0.5134 -0.7432
vn 0.8582 -0.5134 -0.0000
vn 0.4291 -0.5134 0.7432
vn -0.4291 -0.5134 0.7432
vn -0.8582 -0.5134 -0.0000
vn -0.4291 0.5134 0.7432
vn -0.8582 0.5134 -0.0000
vn -0.4291 0.5134 -0.7432
vn 0.4291 0.5134 -0.7432
vn 0.8582 0.5134 -0.0000
vn 0.4291 0.5134 0.7432
vn 0.4053 0.5857 -0.7020
vn -0.4053 -0.5857 0.7020
vn -0.4053 -0.5857 -0.7020
vn 0.4053 0.5857 0.7020
vt 0.710800 0.283974
vt 0.181958 0.085739
vt 0.319726 0.280332
vt 0.053399 0.645859
vt 0.135078 0.656364
vt 0.053674 0.658181
vt 0.428991 0.491607
vt 0.350176 0.539488
vt 0.348118 0.447292
vt 0.460419 0.636773
vt 0.542098 0.647278
vt 0.460694 0.649095
vt 0.379015 0.638591
vt 0.379290 0.650912
vt 0.462220 0.443993
vt 0.543093 0.488308
vt 0.464279 0.536189
vt 0.297611 0.640408
vt 0.297886 0.652729
vt 0.216207 0.642225
vt 0.216482 0.654547
vt 0.134803 0.644042
vt 0.543276 0.700072
vt 0.461597 0.689568
vt 0.543001 0.687751
vt 0.145855 0.543685
vt 0.097058 0.532810
vt 0.140864 0.533994
vt 0.136256 0.709158
vt 0.054577 0.698654
vt 0.135981 0.696837
vt 0.178047 0.497797
vt 0.167058 0.495937
vt 0.382559 0.588676
vt 0.448063 0.599542
vt 0.382834 0.600998
vt 0.056415 0.595957
vt 0.121919 0.606822
vt 0.056690 0.608279
vt 0.227788 0.543809
vt 0.206972 0.495700
vt 0.232332 0.534481
vt 0.281084 0.541810
vt 0.275496 0.532781
vt 0.121644 0.594501
vt 0.135234 0.585911
vt 0.195158 0.479779
vt 0.204068 0.479103
vt 0.210289 0.462443
vt 0.134959 0.573589
vt 0.172913 0.585070
vt 0.177668 0.480827
vt 0.169586 0.479991
vt 0.167355 0.456644
vt 0.162295 0.464163
vt 0.153632 0.717057
vt 0.200929 0.728329
vt 0.200654 0.716007
vt 0.145405 0.457634
vt 0.217660 0.707341
vt 0.217385 0.695019
vt 0.205999 0.455074
vt 0.226441 0.456065
vt 0.299064 0.705524
vt 0.298789 0.693202
vt 0.221996 0.444916
vt 0.274380 0.457172
vt 0.252102 0.591589
vt 0.187148 0.605366
vt 0.186873 0.593045
vt 0.150565 0.446368
vt 0.098472 0.457565
vt 0.092984 0.447922
vt 0.065338 0.494951
vt 0.076097 0.495113
vt 0.317331 0.590132
vt 0.252377 0.603910
vt 0.317606 0.602454
vt 0.091506 0.541995
vt 0.461872 0.701889
vt 0.380193 0.691385
vt 0.380468 0.703707
vt 0.296475 0.494903
vt 0.279882 0.448162
vt 0.043796 0.853082
vt 0.168547 0.853082
vt 0.106171 0.961120
vt 0.698295 0.844029
vt 0.626197 0.822217
vt 0.674214 0.805301
vt 0.428308 0.822024
vt 0.356692 0.861850
vt 0.372874 0.814707
vt 0.428322 0.895233
vt 0.427673 0.862620
vt 0.704288 0.889690
vt 0.632657 0.856307
vt 0.578254 0.825091
vt 0.633307 0.888920
vt 0.580814 0.860118
vt 0.529595 0.825153
vt 0.580065 0.889979
vt 0.531040 0.861112
vt 0.479910 0.824188
vt 0.529939 0.890428
vt 0.480914 0.861561
vt 0.480165 0.891422
vt 0.531385 0.926387
vt 0.482726 0.926449
vt 0.434782 0.929323
vt 0.362684 0.907511
vt 0.196140 0.923470
vt 0.258515 0.815433
vt 0.320890 0.923470
vt 0.688106 0.936833
vt 0.632671 0.929516
vt 0.581069 0.927353
vt 0.852168 0.091980
vt 0.401347 0.446104
vt 0.403405 0.538300
vt 0.322532 0.493984
vt 0.541823 0.634956
vt 0.436635 0.490685
vt 0.515450 0.442804
vt 0.517508 0.535000
vt 0.054852 0.710976
vt 0.447788 0.587220
vt 0.195563 0.497936
vt 0.172638 0.572748
vt 0.153907 0.729379
vt 0.307170 0.494761
vt 0.043796 0.925107
vt 0.106171 0.817070
vt 0.168547 0.925107
vt 0.386765 0.946239
vt 0.258515 0.959483
vt 0.196140 0.851445
vt 0.320890 0.851445
s 0
usemtl マテリアル
f 3/1/1 2/2/1 1/3/1
f 7/4/2 6/5/2 5/6/2
f 6/7/3 14/8/3 8/9/3
f 10/10/4 5/11/4 8/12/4
f 11/13/1 8/12/1 9/14/1
f 7/15/5 11/16/5 13/17/5
f 12/18/6 9/14/6 14/19/6
f 13/20/7 14/19/7 15/21/7
f 16/22/8 15/21/8 6/5/8
f 19/23/2 18/24/2 17/25/2
f 17/26/3 22/27/3 21/28/3
f 27/29/4 17/30/4 20/31/4
f 20/32/3 21/28/3 23/33/3
f 25/34/6 21/35/6 22/36/6
f 24/37/7 23/38/7 21/39/7
f 19/40/5 26/41/5 24/42/5
f 48/43/5 24/42/5 25/44/5
f 26/45/8 31/46/8 23/38/8
f 26/41/9 30/47/9 28/48/9
f 30/47/5 29/49/5 28/48/5
f 28/50/8 32/51/8 31/46/8
f 33/52/10 23/33/10 31/53/10
f 34/54/3 31/53/3 32/55/3
f 33/56/1 27/29/1 20/31/1
f 36/57/1 33/56/1 34/58/1
f 41/59/11 34/54/11 32/55/11
f 37/60/1 34/58/1 35/61/1
f 36/62/12 39/63/12 29/49/12
f 38/64/6 35/61/6 43/65/6
f 37/66/5 40/67/5 39/63/5
f 40/68/2 41/69/2 39/70/2
f 32/51/8 39/70/8 41/69/8
f 35/71/3 42/72/3 43/73/3
f 46/74/3 42/72/3 44/75/3
f 45/76/4 42/77/4 40/68/4
f 25/34/1 44/78/1 45/76/1
f 18/79/3 44/75/3 22/27/3
f 48/80/8 46/81/8 18/24/8
f 47/82/7 43/65/7 46/81/7
f 45/83/5 48/43/5 25/44/5
f 38/84/5 45/83/5 40/67/5
f 50/85/3 61/86/3 51/87/3
f 52/88/13 50/89/13 49/90/13
f 51/91/14 52/92/14 49/93/14
f 67/94/4 52/92/4 54/95/4
f 53/96/2 55/97/2 52/88/2
f 55/97/15 58/98/15 50/89/15
f 56/99/8 57/100/8 55/97/8
f 57/100/16 61/101/16 58/98/16
f 59/102/7 60/103/7 57/100/7
f 60/103/17 64/104/17 61/101/17
f 62/105/6 63/106/6 60/103/6
f 63/106/18 51/91/18 64/104/18
f 65/107/1 54/95/1 63/106/1
f 72/108/19 65/107/19 62/105/19
f 66/109/20 67/94/20 65/107/20
f 68/110/21 53/111/21 67/94/21
f 69/112/5 66/113/5 71/114/5
f 69/115/22 56/99/22 53/96/22
f 70/116/23 59/102/23 56/99/23
f 71/117/24 62/105/24 59/102/24
f 3/1/1 4/118/1 2/2/1
f 7/4/2 16/22/2 6/5/2
f 8/9/3 5/119/3 6/7/3
f 6/7/3 15/120/3 14/8/3
f 14/8/3 9/121/3 8/9/3
f 10/10/4 7/122/4 5/11/4
f 11/13/1 10/10/1 8/12/1
f 13/17/5 16/123/5 7/15/5
f 7/15/5 10/124/5 11/16/5
f 11/16/5 12/125/5 13/17/5
f 12/18/6 11/13/6 9/14/6
f 13/20/7 12/18/7 14/19/7
f 16/22/8 13/20/8 15/21/8
f 19/23/2 48/80/2 18/24/2
f 17/26/3 18/79/3 22/27/3
f 27/29/4 19/126/4 17/30/4
f 20/32/3 17/26/3 21/28/3
f 25/34/6 24/127/6 21/35/6
f 24/37/7 26/45/7 23/38/7
f 19/40/5 27/128/5 26/41/5
f 48/43/5 19/40/5 24/42/5
f 26/45/8 28/50/8 31/46/8
f 26/41/25 27/128/25 30/47/25
f 30/47/5 36/62/5 29/49/5
f 28/50/8 29/129/8 32/51/8
f 33/52/26 20/32/26 23/33/26
f 34/54/3 33/52/3 31/53/3
f 33/56/1 30/130/1 27/29/1
f 36/57/1 30/130/1 33/56/1
f 41/59/27 35/71/27 34/54/27
f 37/60/1 36/57/1 34/58/1
f 36/62/28 37/66/28 39/63/28
f 38/64/6 37/60/6 35/61/6
f 37/66/5 38/84/5 40/67/5
f 40/68/2 42/77/2 41/69/2
f 32/51/8 29/129/8 39/70/8
f 35/71/3 41/59/3 42/72/3
f 46/74/3 43/73/3 42/72/3
f 45/76/4 44/78/4 42/77/4
f 25/34/1 22/36/1 44/78/1
f 18/79/3 46/74/3 44/75/3
f 48/80/8 47/82/8 46/81/8
f 47/82/7 38/64/7 43/65/7
f 45/83/5 47/131/5 48/43/5
f 38/84/5 47/131/5 45/83/5
f 51/87/3 49/132/3 50/85/3
f 50/85/3 58/133/3 61/86/3
f 61/86/3 64/134/3 51/87/3
f 52/88/13 55/97/13 50/89/13
f 51/91/14 54/95/14 52/92/14
f 67/94/4 53/111/4 52/92/4
f 53/96/2 56/99/2 55/97/2
f 55/97/15 57/100/15 58/98/15
f 56/99/8 59/102/8 57/100/8
f 57/100/16 60/103/16 61/101/16
f 59/102/7 62/105/7 60/103/7
f 60/103/17 63/106/17 64/104/17
f 62/105/6 65/107/6 63/106/6
f 63/106/18 54/95/18 51/91/18
f 65/107/1 67/94/1 54/95/1
f 72/108/19 66/109/19 65/107/19
f 66/109/20 68/110/20 67/94/20
f 68/110/21 69/135/21 53/111/21
f 71/114/5 70/136/5 69/112/5
f 69/112/5 68/137/5 66/113/5
f 66/113/5 72/138/5 71/114/5
f 69/115/22 70/116/22 56/99/22
f 70/116/23 71/117/23 59/102/23
f 71/117/24 72/108/24 62/105/24
